{
  "accessors": [
    {
      "bufferView": 2,
      "componentType": 5126,
      "count": 65532,
      "max": [
        0.49965953826904297,
        0.49965953826904297,
        0.49997621774673462
      ],
      "min": [
        -0.49965953826904297,
        -0.49965953826904297,
        -0.33568048477172852
      ],
      "type": "VEC3"
    },
    {
      "bufferView": 2,
      "byteOffset": 786384,
      "componentType": 5126,
      "count": 65532,
      "max": [
        1,
        1,
        1
      ],
      "min": [
        -1,
        -1,
        -0.67140001058578491
      ],
      "type": "VEC3"
    },
    {
      "bufferView": 3,
      "componentType": 5126,
      "count": 65532,
      "max": [
        1,
        1,
        0.073991298675537109,
        1
      ],
      "min": [
        -1,
        -1,
        -0.073103964328765869,
        1
      ],
      "type": "VEC4"
    },
    {
      "bufferView": 1,
      "componentType": 5126,
      "count": 65532,
      "max": [
        1.9999995231628418,
        1.0000001192092896
      ],
      "min": [
        -7.1525579414810636e-07,
        0.26562508940696716
      ],
      "type": "VEC2"
    },
    {
      "bufferView": 1,
      "byteOffset": 524256,
      "componentType": 5126,
      "count": 65532,
      "max": [
        1.9999995231628418,
        1.0000001192092896
      ],
      "min": [
        -7.1525579414810636e-07,
        0.26562508940696716
      ],
      "type": "VEC2"
    },
    {
      "bufferView": 1,
      "byteOffset": 1048512,
      "componentType": 5126,
      "count": 65532,
      "max": [
        1.9999995231628418,
        1.0000001192092896
      ],
      "min": [
        -7.1525579414810636e-07,
        0.26562508940696716
      ],
      "type": "VEC2"
    },
    {
      "bufferView": 0,
      "componentType": 5125,
      "count": 202044,
      "max": [
        65531
      ],
      "min": [
        0
      ],
      "type": "SCALAR"
    },
    {
      "bufferView": 2,
      "byteOffset": 1572768,
      "componentType": 5126,
      "count": 28267,
      "max": [
        0.41545164585113525,
        0.41533473134040833,
        -0.277690589427948
      ],
      "min": [
        -0.41545170545578003,
        -0.41545170545578003,
        -0.49997621774673462
      ],
      "type": "VEC3"
    },
    {
      "bufferView": 2,
      "byteOffset": 1911972,
      "componentType": 5126,
      "count": 28267,
      "max": [
        0.83157384395599365,
        0.8313254714012146,
        -0.55540311336517334
      ],
      "min": [
        -0.83157384395599365,
        -0.83157438039779663,
        -1
      ],
      "type": "VEC3"
    },
    {
      "bufferView": 3,
      "byteOffset": 1048512,
      "componentType": 5126,
      "count": 28267,
      "max": [
        1,
        1,
        0.074135743081569672,
        1
      ],
      "min": [
        -1,
        -0.99998581409454346,
        -0.072873957455158234,
        1
      ],
      "type": "VEC4"
    },
    {
      "bufferView": 1,
      "byteOffset": 1572768,
      "componentType": 5126,
      "count": 28267,
      "max": [
        1.9999995231628418,
        0.31250002980232239
      ],
      "min": [
        -7.1525579414810636e-07,
        0
      ],
      "type": "VEC2"
    },
    {
      "bufferView": 1,
      "byteOffset": 1798904,
      "componentType": 5126,
      "count": 28267,
      "max": [
        1.9999995231628418,
        0.31250002980232239
      ],
      "min": [
        -7.1525579414810636e-07,
        0
      ],
      "type": "VEC2"
    },
    {
      "bufferView": 1,
      "byteOffset": 2025040,
      "componentType": 5126,
      "count": 28267,
      "max": [
        1.9999995231628418,
        0.31250002980232239
      ],
      "min": [
        -7.1525579414810636e-07,
        0
      ],
      "type": "VEC2"
    },
    {
      "bufferView": 0,
      "byteOffset": 808176,
      "componentType": 5125,
      "count": 88260,
      "max": [
        28266
      ],
      "min": [
        0
      ],
      "type": "SCALAR"
    }
  ],
  "asset": {
    "extras": {
      "author": "Ilya.Krupenkov (https://sketchfab.com/Ilya.Krupenkov)",
      "license": "CC-BY-4.0 (http://creativecommons.org/licenses/by/4.0/)",
      "source": "https://sketchfab.com/3d-models/brick-wall-material-6ef775e935da4d159e40098b06ad33d3",
      "title": "Brick wall material"
    },
    "generator": "Sketchfab-9.35.0",
    "version": "2.0"
  },
  "bufferViews": [
    {
      "buffer": 0,
      "byteLength": 1161216,
      "byteOffset": 0,
      "name": "floatBufferViews",
      "target": 34963
    },
    {
      "buffer": 0,
      "byteLength": 2251176,
      "byteOffset": 1161216,
      "byteStride": 8,
      "name": "floatBufferViews",
      "target": 34962
    },
    {
      "buffer": 0,
      "byteLength": 2251176,
      "byteOffset": 3412392,
      "byteStride": 12,
      "name": "floatBufferViews",
      "target": 34962
    },
    {
      "buffer": 0,
      "byteLength": 1500784,
      "byteOffset": 5663568,
      "byteStride": 16,
      "name": "floatBufferViews",
      "target": 34962
    }
  ],
  "buffers": [
    {
      "byteLength": 7164352,
      "uri": "scene.bin"
    }
  ],
  "images": [
    {
      "uri": "textures/Brick_wall_baseColor.png"
    },
    {
      "uri": "textures/Brick_wall_metallicRoughness.png"
    },
    {
      "uri": "textures/Brick_wall_normal.png"
    }
  ],
  "materials": [
    {
      "doubleSided": true,
      "emissiveFactor": [
        0,
        0,
        0
      ],
      "name": "Brick_wall",
      "normalTexture": {
        "index": 2,
        "scale": 1,
        "texCoord": 1
      },
      "occlusionTexture": {
        "index": 1,
        "strength": 1,
        "texCoord": 0
      },
      "pbrMetallicRoughness": {
        "baseColorFactor": [
          1,
          1,
          1,
          1
        ],
        "baseColorTexture": {
          "index": 0,
          "texCoord": 0
        },
        "metallicFactor": 1,
        "metallicRoughnessTexture": {
          "index": 1,
          "texCoord": 0
        },
        "roughnessFactor": 1
      }
    }
  ],
  "meshes": [
    {
      "name": "Sphere_Brick_wall_0",
      "primitives": [
        {
          "attributes": {
            "NORMAL": 1,
            "POSITION": 0,
            "TANGENT": 2,
            "TEXCOORD_0": 3,
            "TEXCOORD_1": 4,
            "TEXCOORD_2": 5
          },
          "indices": 6,
          "material": 0,
          "mode": 4
        }
      ]
    },
    {
      "name": "Sphere_Brick_wall_0",
      "primitives": [
        {
          "attributes": {
            "NORMAL": 8,
            "POSITION": 7,
            "TANGENT": 9,
            "TEXCOORD_0": 10,
            "TEXCOORD_1": 11,
            "TEXCOORD_2": 12
          },
          "indices": 13,
          "material": 0,
          "mode": 4
        }
      ]
    }
  ],
  "nodes": [
    {
      "children": [
        1
      ],
      "name": "RootNode (gltf orientation matrix)",
      "rotation": [
        -0.70710678118654746,
        -0,
        -0,
        0.70710678118654757
      ]
    },
    {
      "children": [
        2
      ],
      "matrix": [
        1,
        0,
        0,
        0,
        0,
        1,
        0,
        0,
        0,
        0,
        1,
        0,
        0,
        -1.3381804819800891e-06,
        -6.8717332624146366e-07,
        1
      ],
      "name": "RootNode (model correction matrix)"
    },
    {
      "children": [
        3
      ],
      "matrix": [
        1,
        0,
        0,
        0,
        0,
        0,
        1,
        0,
        0,
        -1,
        0,
        0,
        0,
        0,
        0,
        1
      ],
      "name": "Sphere 2 Tiles.FBX"
    },
    {
      "children": [
        4
      ],
      "name": "RootNode"
    },
    {
      "children": [
        5,
        6
      ],
      "matrix": [
        100,
        0,
        0,
        0,
        0,
        -1.6292067939183141e-05,
        -99.999999999998678,
        0,
        0,
        99.999999999998678,
        -1.6292067939183141e-05,
        0,
        0,
        0,
        0,
        1
      ],
      "name": "Sphere"
    },
    {
      "mesh": 0,
      "name": "Sphere_Brick_wall_0"
    },
    {
      "mesh": 1,
      "name": "Sphere_Brick_wall_0"
    }
  ],
  "samplers": [
    {
      "magFilter": 9729,
      "minFilter": 9987,
      "wrapS": 10497,
      "wrapT": 10497
    }
  ],
  "scene": 0,
  "scenes": [
    {
      "name": "OSG_Scene",
      "nodes": [
        0
      ]
    }
  ],
  "textures": [
    {
      "sampler": 0,
      "source": 0
    },
    {
      "sampler": 0,
      "source": 1
    },
    {
      "sampler": 0,
      "source": 2
    }
  ]
}

